<?xml version="1.0" standalone="no"?>
<!DOCTYPE svg PUBLIC "-//W3C//DTD SVG 20010904//EN"
 "http://www.w3.org/TR/2001/REC-SVG-20010904/DTD/svg10.dtd">
<svg version="1.0" xmlns="http://www.w3.org/2000/svg"
 width="1028.000000pt" height="1028.000000pt" viewBox="0 0 1028.000000 1028.000000"
 preserveAspectRatio="xMidYMid meet">
<metadata>
Created by potrace 1.11, written by Peter Selinger 2001-2013
</metadata>
<g transform="translate(0.000000,1028.000000) scale(0.100000,-0.100000)"
fill="#000000" stroke="none">
<path d="M688 10003 l-3 -278 -343 -3 c-293 -2 -342 -4 -342 -17 0 -13 49 -15
343 -17 l342 -3 3 -357 2 -358 -345 0 c-299 0 -345 -2 -345 -15 0 -13 47 -15
342 -17 l343 -3 0 -355 0 -355 -342 -3 c-294 -2 -343 -4 -343 -17 0 -13 49
-15 343 -17 l342 -3 0 -355 0 -355 -342 -3 c-294 -2 -343 -4 -343 -17 0 -13
49 -15 343 -17 l342 -3 3 -352 2 -353 -345 0 c-338 0 -345 0 -345 -20 0 -19 8
-20 343 -22 l342 -3 0 -355 0 -355 -342 -3 c-294 -2 -343 -4 -343 -17 0 -13
49 -15 342 -17 l343 -3 3 -352 2 -353 -345 0 c-338 0 -345 0 -345 -20 0 -19 8
-20 343 -22 l342 -3 3 -352 2 -353 -345 0 c-338 0 -345 0 -345 -20 0 -19 8
-20 343 -22 l342 -3 3 -352 2 -353 -345 0 c-338 0 -345 0 -345 -20 0 -20 7
-20 345 -20 l345 0 0 -355 0 -355 -345 0 c-338 0 -345 0 -345 -20 0 -20 7 -20
345 -20 l345 0 0 -355 0 -355 -345 0 c-338 0 -345 0 -345 -20 0 -20 7 -20 345
-20 l345 0 0 -355 0 -355 -345 0 c-338 0 -345 0 -345 -20 0 -20 7 -20 345 -20
l345 0 0 -355 0 -355 -345 0 c-338 0 -345 0 -345 -20 0 -20 7 -20 345 -20
l345 0 0 -345 c0 -300 2 -345 15 -345 13 0 15 45 15 345 l0 345 355 0 355 0 0
-345 c0 -338 0 -345 20 -345 20 0 20 7 20 345 l0 345 358 -2 357 -3 3 -342 c2
-296 4 -343 17 -343 13 0 15 46 15 345 l0 345 355 0 355 0 0 -345 c0 -338 0
-345 20 -345 20 0 20 7 20 345 l0 345 355 0 355 0 0 -345 c0 -338 0 -345 20
-345 20 0 20 7 20 345 l0 345 355 0 355 0 0 -345 c0 -338 0 -345 20 -345 20 0
20 7 20 345 l0 345 355 0 355 0 0 -345 c0 -338 0 -345 20 -345 20 0 20 7 20
345 l0 345 355 0 355 0 0 -345 c0 -338 0 -345 20 -345 20 0 20 7 20 345 l0
345 355 0 355 0 0 -345 c0 -338 0 -345 20 -345 20 0 20 7 20 345 l0 345 355 0
355 0 0 -345 c0 -338 0 -345 20 -345 20 0 20 7 20 345 l0 345 355 0 355 0 0
-345 c0 -338 0 -345 20 -345 20 0 20 7 20 345 l0 345 355 0 355 0 0 -345 c0
-338 0 -345 20 -345 20 0 20 7 20 345 l0 345 355 0 355 0 0 -345 c0 -338 0
-345 20 -345 20 0 20 7 20 345 l0 345 280 0 c273 0 280 0 280 20 0 20 -7 20
-280 20 l-280 0 0 355 0 355 280 0 c273 0 280 0 280 20 0 20 -7 20 -280 20
l-280 0 0 355 0 355 280 0 c273 0 280 0 280 20 0 20 -7 20 -280 20 l-280 0 0
355 0 355 280 0 c273 0 280 0 280 20 0 20 -7 20 -280 20 l-280 0 0 355 0 355
280 0 c273 0 280 0 280 20 0 20 -7 20 -280 20 l-280 0 0 355 0 355 280 0 c273
0 280 0 280 20 0 20 -7 20 -280 20 l-280 0 0 355 0 355 280 0 c273 0 280 0
280 20 0 20 -7 20 -280 20 l-280 0 0 355 0 355 280 0 c241 0 280 2 280 15 0
13 -40 15 -277 17 l-278 3 -3 358 -2 357 280 0 c273 0 280 0 280 20 0 20 -7
20 -280 20 l-280 0 0 355 0 355 280 0 c242 0 280 2 280 15 0 13 -38 15 -280
15 l-280 0 0 360 0 360 280 0 c241 0 280 2 280 15 0 13 -40 15 -277 17 l-278
3 -3 358 -2 357 280 0 c242 0 280 2 280 15 0 13 -38 15 -280 15 l-280 0 2 358
3 357 278 3 c237 2 277 4 277 17 0 13 -39 15 -280 15 l-280 0 0 280 c0 273 0
280 -20 280 -20 0 -20 -7 -20 -280 l0 -280 -355 0 -355 0 0 280 c0 273 0 280
-20 280 -20 0 -20 -7 -20 -280 l0 -280 -355 0 -355 0 0 280 c0 273 0 280 -20
280 -20 0 -20 -7 -20 -280 l0 -280 -355 0 -355 0 0 280 c0 273 0 280 -20 280
-20 0 -20 -7 -20 -280 l0 -280 -352 2 -353 3 -3 278 c-2 269 -3 277 -22 277
-19 0 -20 -7 -20 -280 l0 -280 -355 0 -355 0 0 280 c0 273 0 280 -20 280 -20
0 -20 -7 -20 -280 l0 -280 -237 0 -238 0 -115 68 -115 67 -3 213 c-2 204 -3
212 -22 212 -19 0 -20 -7 -20 -195 0 -107 -3 -195 -7 -195 -3 0 -67 33 -142
74 -180 98 -213 109 -336 109 -91 0 -136 -8 -207 -38 -17 -7 -18 3 -18 119 0
119 -1 126 -20 126 -18 0 -20 -8 -22 -137 l-3 -137 -95 -54 c-52 -30 -160 -93
-240 -141 l-145 -86 -110 0 -110 0 -3 278 c-2 269 -3 277 -22 277 -19 0 -20
-7 -20 -280 l0 -280 -352 2 -353 3 -3 278 c-2 269 -3 277 -22 277 -19 0 -20
-7 -20 -280 l0 -280 -352 2 -353 3 -3 278 c-2 236 -5 277 -17 277 -12 0 -15
-41 -17 -277 l-3 -278 -355 0 -355 0 -3 278 c-2 269 -3 277 -22 277 -19 0 -20
-7 -20 -280 l0 -280 -352 2 -353 3 -3 278 c-2 236 -5 277 -17 277 -12 0 -15
-41 -17 -277z m742 -673 l0 -360 -355 0 -355 0 0 353 c0 195 3 357 7 360 3 4
163 7 355 7 l348 0 0 -360z m755 338 c3 -13 4 -174 3 -358 l-3 -335 -357 -3
-358 -2 0 353 c0 195 3 357 7 360 3 4 163 7 354 7 l349 0 5 -22z m745 -250 l0
-273 -150 -87 -149 -88 -205 0 -206 0 0 353 c0 195 3 357 7 360 3 4 163 7 355
7 l348 0 0 -272z m750 218 c0 -66 15 -53 -241 -198 -102 -58 -248 -143 -325
-187 l-139 -82 -3 248 c-1 136 0 253 3 260 3 10 81 13 355 13 l350 0 0 -54z
m180 49 c0 -5 -124 -75 -133 -75 -9 0 -9 65 0 73 7 8 133 10 133 2z m2070
-115 l0 -121 -27 15 c-16 8 -102 57 -192 110 -91 53 -168 96 -173 96 -4 0 -8
5 -8 10 0 6 73 10 200 10 l200 0 0 -120z m748 -217 c1 -183 0 -333 -3 -333 -3
0 -74 40 -158 88 -84 49 -241 140 -349 203 l-198 114 0 126 c0 69 3 129 7 132
4 4 162 6 352 5 l346 -3 3 -332z m752 -23 l0 -360 -336 0 c-212 0 -342 4 -355
10 -18 10 -19 25 -19 354 0 188 3 346 7 349 3 4 163 7 355 7 l348 0 0 -360z
m748 -2 l2 -358 -355 0 -355 0 0 360 0 360 353 -2 352 -3 3 -357z m750 0 l2
-358 -355 0 -355 0 0 353 c0 195 3 357 7 360 4 4 162 6 352 5 l346 -3 3 -357z
m750 0 l2 -358 -355 0 -355 0 0 360 0 360 353 -2 352 -3 3 -357z m-8248 -748
l0 -360 -352 2 -353 3 -3 345 c-1 190 0 351 3 357 3 10 83 13 355 13 l350 0 0
-360z m758 244 l3 -112 -46 -48 c-27 -28 -66 -89 -92 -142 -42 -87 -46 -100
-52 -195 l-6 -102 -240 -3 c-132 -1 -250 0 -262 3 l-23 5 0 349 c0 191 3 351
7 354 4 4 164 6 357 5 l351 -3 3 -111z m372 112 c0 -5 -325 -196 -333 -196 -9
0 -9 185 0 193 6 7 333 10 333 3z m4868 -353 c-3 -332 -4 -358 -20 -361 -16
-3 -18 5 -18 65 0 137 -52 268 -147 371 -46 50 -91 82 -218 157 -88 52 -169
101 -180 109 -18 14 10 15 283 16 l302 0 -2 -357z m750 0 l-3 -358 -352 -3
-353 -2 0 360 0 360 355 0 355 0 -2 -357z m750 0 l-3 -358 -350 0 -350 0 -3
358 -2 357 355 0 355 0 -2 -357z m750 0 l-3 -358 -352 -3 -353 -2 0 360 0 360
355 0 355 0 -2 -357z m-5021 161 c40 -20 98 -76 119 -116 25 -48 30 -140 10
-192 -50 -131 -215 -200 -332 -138 -95 49 -154 158 -140 255 8 53 51 127 94
162 65 54 170 66 249 29z m-1437 -61 c81 -39 138 -88 180 -153 93 -144 92
-336 0 -480 -60 -93 -168 -161 -289 -182 -185 -32 -372 67 -454 239 -30 64
-32 74 -32 183 0 105 2 120 28 174 53 114 139 192 257 236 44 16 74 20 150 17
82 -3 104 -7 160 -34z m3076 -458 c126 -74 121 -264 -8 -331 -39 -20 -126 -21
-165 -1 -38 20 -91 80 -99 113 -4 14 -4 50 -2 80 11 132 158 207 274 139z
m-4866 -395 l0 -360 -352 2 -353 3 -3 345 c-1 190 0 351 3 357 3 10 83 13 355
13 l350 0 0 -360z m594 294 c30 -82 70 -149 123 -206 l43 -48 -2 -197 -3 -198
-355 0 -355 0 -3 345 c-1 190 0 351 3 358 3 10 62 12 266 10 l261 -3 22 -61z
m5406 -294 l0 -360 -355 0 -355 0 0 60 c0 51 3 62 23 73 12 8 114 68 227 133
270 157 348 235 395 397 14 49 20 57 41 57 l24 0 0 -360z m750 0 l0 -360 -355
0 -355 0 0 360 0 360 355 0 355 0 0 -360z m750 0 l0 -360 -355 0 -355 0 0 360
0 360 355 0 355 0 0 -360z m750 0 l0 -360 -355 0 -355 0 0 360 0 360 355 0
355 0 0 -360z m-7363 -36 c43 -26 179 -105 303 -176 124 -71 229 -134 235
-139 6 -6 -112 -8 -310 -7 l-320 3 -3 183 c-1 109 1 182 7 182 5 0 45 -21 88
-46z m1557 -8 c44 -18 104 -80 127 -130 74 -163 -73 -366 -248 -342 -84 11
-162 68 -198 143 -26 54 -25 156 2 208 26 50 77 99 123 119 44 19 150 20 194
2z m2806 -271 l0 -45 -76 0 c-45 0 -73 4 -69 10 6 10 125 80 138 80 4 0 7 -20
7 -45z m-5250 -260 l0 -184 -34 -63 c-42 -76 -81 -178 -91 -236 l-7 -42 -289
0 -289 0 0 348 c0 192 3 352 7 355 3 4 163 7 355 7 l348 0 0 -185z m650 175
c-126 -9 -208 -30 -317 -82 -95 -46 -154 -88 -235 -167 l-58 -55 0 150 c0 83
3 154 7 157 3 4 164 6 357 5 244 -1 319 -3 246 -8z m850 -345 l0 -355 -144 0
c-129 0 -145 2 -150 18 -3 9 -42 150 -86 312 -45 162 -84 298 -88 301 -12 11
-134 48 -180 55 -111 17 -26 24 297 24 l351 0 0 -355z m3750 0 l0 -355 -355 0
-355 0 0 213 0 212 83 50 c45 27 156 91 247 142 l164 93 108 0 108 0 0 -355z
m750 337 c0 -17 -4 -18 -62 -6 -84 18 -209 17 -304 -1 -83 -16 -161 -41 -181
-59 -7 -6 -44 -128 -84 -271 -39 -143 -73 -262 -75 -264 -2 -2 -4 136 -4 307
l0 312 355 0 c337 0 355 -1 355 -18z m750 -337 l0 -355 -67 0 -68 0 -22 78
c-67 241 -225 428 -455 540 -80 39 -98 51 -98 70 l0 22 355 0 355 0 0 -355z
m750 0 l0 -355 -355 0 -355 0 0 355 0 355 355 0 355 0 0 -355z m750 0 l0 -355
-355 0 -355 0 0 355 0 355 355 0 355 0 0 -355z m-6420 162 c74 -43 199 -115
278 -160 l142 -81 0 -138 0 -138 -355 0 -355 0 0 341 0 341 78 -43 c42 -23
138 -78 212 -122z m2667 -514 c-2 -2 -158 -2 -347 -1 l-342 3 217 125 c120 69
275 158 344 197 l126 73 3 -196 c1 -109 1 -199 -1 -201z m-1986 121 c112 -64
206 -118 208 -120 2 -2 -93 -4 -212 -4 l-217 0 0 120 c0 66 4 120 9 120 4 0
100 -52 212 -116z m-2655 -210 c-3 -26 -6 -188 -6 -361 l0 -313 -277 2 -278 3
-3 345 c-1 190 0 351 3 357 3 10 69 13 286 13 l282 0 -7 -46z m1644 -314 l0
-360 -310 0 -311 0 -44 92 c-36 73 -45 102 -45 145 0 29 4 53 8 53 5 0 109
-25 233 -55 123 -30 250 -61 283 -69 l58 -14 -6 36 c-3 20 -35 142 -71 271
-36 128 -65 239 -65 247 0 11 26 14 135 14 l135 0 0 -360z m697 110 c47 -221
52 -256 50 -355 l-2 -110 -330 -3 c-181 -1 -340 0 -352 3 l-23 5 0 349 c0 191
3 351 7 354 4 4 140 6 302 5 l296 -3 52 -245z m53 240 c0 -5 -4 -10 -9 -10 -6
0 -13 5 -16 10 -3 6 1 10 9 10 9 0 16 -4 16 -10z m645 -48 l100 -58 3 -197 2
-197 -42 46 c-52 57 -113 98 -283 194 -364 204 -408 234 -378 263 3 4 117 7
252 7 l246 0 100 -58z m855 -94 l-1 -153 -76 -45 c-131 -78 -217 -180 -262
-312 l-18 -53 -150 -3 -150 -3 -27 75 c-25 71 -26 82 -26 291 0 191 2 216 15
211 117 -44 282 -46 395 -4 36 13 115 52 175 86 61 34 113 62 118 62 4 0 7
-69 7 -152z m503 141 c-7 -7 -112 -69 -235 -140 l-223 -128 -3 126 c-1 70 0
133 2 140 4 10 56 13 238 13 173 0 229 -3 221 -11z m245 -346 l-3 -358 -149
-3 c-82 -1 -153 1 -156 5 -7 8 131 681 144 702 4 7 39 11 87 11 l79 0 -2 -357z
m752 339 c0 -10 -29 -121 -64 -247 -80 -290 -81 -295 -64 -295 7 0 38 7 68 15
30 8 56 15 58 15 1 0 1 -42 0 -92 l-3 -93 -350 0 -350 0 -3 358 -2 357 355 0
c334 0 355 -1 355 -18z m1498 -339 l-3 -358 -60 0 -60 0 -3 358 -2 357 65 0
65 0 -2 -357z m750 0 l-3 -358 -350 0 -350 0 -3 358 -2 357 355 0 355 0 -2
-357z m750 0 l-3 -358 -350 0 -350 0 -3 358 -2 357 355 0 355 0 -2 -357z
m-7491 -68 c9 -25 -4 -29 -17 -6 -7 15 -7 21 0 21 6 0 13 -7 17 -15z m4993 3
c-1 -7 -33 -76 -73 -153 l-72 -140 -155 0 -155 0 -3 96 -3 96 218 56 c245 62
243 62 243 45z m-5900 -683 l0 -355 -280 0 -280 0 0 348 c0 192 3 352 7 355 3
4 129 7 280 7 l273 0 0 -355z m1650 0 l0 -355 -133 0 -134 0 -162 338 c-90
185 -165 345 -168 355 -5 16 14 17 296 17 l301 0 0 -355z m750 0 l0 -355 -74
0 c-41 0 -151 11 -246 25 -95 14 -180 25 -191 25 -14 0 -19 -7 -19 -25 0 -25
-1 -25 -90 -25 l-90 0 0 348 c0 192 3 352 7 355 3 4 163 7 355 7 l348 0 0
-355z m1136 309 c-3 -26 -6 -186 -6 -355 l0 -309 -140 0 -140 0 0 355 0 355
146 0 147 0 -7 -46z m1114 -298 c0 -265 -3 -347 -12 -353 -7 -4 -116 -9 -241
-11 l-228 -4 6 23 c3 13 30 139 60 279 29 140 61 290 71 333 l17 77 164 0 163
0 0 -344z m750 -11 l0 -355 -250 0 -250 0 0 25 c0 14 -6 25 -12 25 -13 0 -115
-15 -170 -25 l-28 -4 0 344 0 345 355 0 355 0 0 -355z m340 350 c0 -3 -26 -58
-59 -123 -32 -64 -95 -196 -141 -292 -45 -96 -87 -179 -91 -184 -5 -6 -9 123
-9 297 l0 307 150 0 c83 0 150 -2 150 -5z m1160 -350 l0 -355 -65 0 -65 0 0
355 0 355 65 0 65 0 0 -355z m750 0 l0 -355 -355 0 -355 0 0 355 0 355 355 0
355 0 0 -355z m750 0 l0 -355 -355 0 -355 0 0 355 0 355 355 0 355 0 0 -355z
m-5933 298 c6 -27 38 -177 72 -335 33 -158 61 -294 61 -303 0 -12 -15 -15 -80
-15 l-80 0 0 350 c0 193 4 350 9 350 4 0 13 -21 18 -47z m-2464 -1025 c2 -183
8 -343 12 -355 l7 -23 -291 0 -291 0 0 348 c0 192 3 352 7 355 3 4 129 7 279
7 l272 0 5 -332z m1647 80 l-1 -253 -26 50 c-33 63 -213 444 -213 450 0 3 54
5 120 5 l120 0 0 -252z m220 -103 l0 -355 -63 0 -64 0 -27 63 -26 62 0 286 c0
157 3 289 7 292 3 4 44 7 90 7 l83 0 0 -355z m733 348 c-7 -2 -19 -2 -25 0 -7
3 -2 5 12 5 14 0 19 -2 13 -5z m927 -348 l0 -355 -140 0 -140 0 0 355 0 355
140 0 140 0 0 -355z m678 348 c-10 -2 -26 -2 -35 0 -10 3 -2 5 17 5 19 0 27
-2 18 -5z m1162 -2 c0 -9 -215 -463 -296 -624 l-39 -78 -65 3 -65 3 -3 330
c-1 182 0 340 3 353 l5 22 230 0 c132 0 230 -4 230 -9z m1530 -346 l0 -355
-71 0 -72 0 7 38 c3 20 6 180 6 355 l0 317 65 0 65 0 0 -355z m750 0 l0 -355
-355 0 -355 0 0 355 0 355 355 0 355 0 0 -355z m750 0 l0 -355 -355 0 -355 0
0 355 0 355 355 0 355 0 0 -355z m-8339 -454 c16 -30 42 -71 59 -92 l30 -38 0
-260 0 -261 -355 0 -355 0 0 348 c0 192 3 352 7 355 4 4 137 6 297 5 l289 -3
28 -54z m1808 -48 l-1 -108 -49 104 c-27 57 -49 105 -49 107 0 2 23 4 50 4
l50 0 -1 -107z m1661 -248 l0 -355 -140 0 -140 0 0 355 0 355 140 0 140 0 0
-355z m1480 345 c0 -16 -94 -200 -102 -200 -10 0 -11 194 -1 203 10 11 103 8
103 -3z m1890 -345 l0 -355 -355 0 -356 0 3 121 3 122 175 101 c204 118 284
188 340 298 l35 68 78 0 77 0 0 -355z m750 0 l0 -355 -355 0 -355 0 0 355 0
355 355 0 355 0 0 -355z m750 0 l0 -355 -355 0 -355 0 0 355 0 355 355 0 355
0 0 -355z m-8157 86 c43 -30 259 -156 472 -276 185 -105 195 -112 195 -140 l0
-25 -360 0 -360 0 0 235 c0 129 3 235 6 235 3 0 24 -13 47 -29z m5907 -336 l0
-105 -187 0 c-115 0 -182 4 -173 10 115 68 347 199 353 200 4 0 7 -47 7 -105z
m-5161 -101 c2 -2 -8 -4 -22 -4 -18 0 -27 5 -27 15 0 13 4 14 23 4 12 -6 24
-13 26 -15z m-839 -399 l0 -355 -355 0 -355 0 0 355 0 355 355 0 355 0 0 -355z
m755 0 l0 -350 -355 0 -355 0 -3 340 c-1 187 0 346 3 353 3 10 79 12 357 10
l353 -3 0 -350z m297 278 c75 -43 206 -118 292 -168 l156 -90 0 -187 0 -188
-355 0 -355 0 0 355 0 355 63 0 c59 0 69 -4 199 -77z m2331 -125 c4 -168 8
-214 26 -268 22 -71 77 -169 119 -212 l26 -28 -257 0 -257 0 0 67 c0 47 8 88
27 142 26 72 28 87 31 289 l4 212 138 0 137 0 6 -202z m2617 -153 l0 -355
-355 0 -355 0 0 279 0 280 133 75 132 75 223 1 222 0 0 -355z m750 0 l0 -355
-355 0 -355 0 0 355 0 355 355 0 355 0 0 -355z m750 0 l0 -355 -355 0 -355 0
0 355 0 355 355 0 355 0 0 -355z m750 0 l0 -355 -355 0 -355 0 0 355 0 355
355 0 355 0 0 -355z m-3000 -90 l0 -265 -355 0 -355 0 0 63 0 62 118 66 c64
37 223 128 352 203 129 75 236 136 238 136 1 0 2 -119 2 -265z m-3405 -90
c127 -72 246 -142 265 -153 l35 -22 -302 0 -303 0 0 176 0 176 38 -22 c20 -13
141 -82 267 -155z m2652 -172 c-3 -2 -40 -3 -83 -1 l-78 3 79 46 80 47 3 -45
c2 -25 1 -47 -1 -50z m-1497 37 c0 -39 -1 -40 -36 -40 l-36 0 33 39 c19 22 35
40 37 40 1 1 2 -17 2 -39z m-3000 -435 l0 -355 -355 0 -355 0 0 348 c0 192 3
352 7 355 3 4 163 7 355 7 l348 0 0 -355z m758 -2 l2 -353 -360 0 -360 0 0
348 c0 192 3 352 7 355 4 4 164 6 357 5 l351 -3 3 -352z m742 2 l0 -355 -355
0 -355 0 0 348 c0 192 3 352 7 355 3 4 163 7 355 7 l348 0 0 -355z m731 345
c18 -10 19 -25 19 -355 l0 -345 -355 0 -355 0 0 355 0 355 336 0 c212 0 342
-4 355 -10z m769 -345 l0 -355 -355 0 -355 0 0 330 c0 182 3 330 8 330 4 0 30
-9 57 -19 78 -30 195 -43 271 -31 75 12 185 51 223 80 19 14 42 19 89 20 l62
0 0 -355z m672 318 l77 -38 1 -317 0 -318 -355 0 -355 0 0 355 0 355 277 0
277 0 78 -37z m828 -318 l0 -355 -355 0 -355 0 0 311 0 311 37 -7 c113 -21
278 7 375 63 51 30 57 31 176 31 l122 1 0 -355z m750 0 l0 -355 -355 0 -355 0
0 355 0 355 355 0 355 0 0 -355z m750 0 l0 -355 -355 0 -355 0 0 355 0 355
355 0 355 0 0 -355z m750 0 l0 -355 -355 0 -355 0 0 355 0 355 355 0 355 0 0
-355z m750 0 l0 -355 -355 0 -355 0 0 355 0 355 355 0 355 0 0 -355z m750 0
l0 -355 -355 0 -355 0 0 355 0 355 355 0 355 0 0 -355z m-8250 -701 c0 -258
-2 -308 -15 -320 -8 -9 -15 -31 -15 -50 l0 -34 -90 0 -90 0 -2 298 -3 297
-157 3 -158 3 -2 -298 -3 -298 -85 0 -85 0 -3 353 -2 352 355 0 355 0 0 -306z
m755 251 l0 -50 -137 -3 -138 -3 -2 -297 -3 -297 -92 -3 -93 -3 0 45 0 45
-122 3 -123 3 -3 308 -2 307 357 -2 358 -3 0 -50z m745 1 l0 -55 -167 -3
c-147 -3 -175 -6 -225 -26 -118 -47 -222 -182 -247 -316 -6 -33 -11 -104 -11
-158 0 -98 0 -98 -25 -98 l-25 0 0 263 c0 145 -3 305 -6 355 l-7 92 357 0 356
0 0 -54z m750 -75 c0 -121 -3 -140 -46 -303 -25 -95 -52 -197 -60 -225 l-15
-53 -124 0 -125 0 0 49 c0 35 -4 51 -16 55 -9 3 -85 6 -170 6 l-155 0 3 88 3
87 168 3 167 2 0 155 0 155 -167 2 -168 3 -3 53 -3 52 355 0 356 0 0 -129z
m750 74 l0 -55 -79 0 c-63 0 -80 -3 -85 -16 -8 -20 -8 -258 0 -278 5 -13 22
-16 85 -16 l79 0 0 -145 0 -145 -113 0 -114 0 -38 143 c-61 230 -123 445 -130
457 -4 6 -64 10 -161 10 l-154 0 0 50 0 50 355 0 355 0 0 -55z m750 0 l0 -55
-355 0 -355 0 0 55 0 55 355 0 355 0 0 -55z m750 -245 l0 -300 -182 2 -183 3
-3 243 -2 243 -153 -3 -152 -3 -3 -297 c-2 -256 -4 -298 -17 -298 -13 0 -15
48 -15 355 l0 355 355 0 355 0 0 -300z m750 245 l0 -54 -42 -12 c-68 -17 -134
-58 -187 -114 -89 -94 -121 -190 -121 -367 l0 -108 -30 0 -30 0 0 300 0 300
-150 0 -150 0 0 55 0 55 355 0 355 0 0 -55z m742 -287 c-2 -189 -5 -349 -7
-355 -3 -7 -16 -13 -30 -13 -23 0 -25 3 -25 49 0 35 -4 51 -16 55 -9 3 -153 6
-320 6 l-305 0 3 88 3 87 318 3 317 2 0 155 0 155 -320 0 -320 0 0 55 0 55
353 0 353 0 -4 -342z m758 276 c0 -65 -1 -66 -22 -58 -13 4 -173 9 -355 11
l-333 4 0 55 0 54 355 0 355 0 0 -66z m750 -289 l0 -355 -265 0 c-146 0 -265
2 -265 5 0 3 9 34 21 68 55 163 -12 358 -158 458 l-43 30 0 74 0 75 355 0 355
0 0 -355z m750 0 l0 -355 -355 0 -355 0 0 355 0 355 355 0 355 0 0 -355z
m-6750 -155 l0 -90 -165 0 -165 0 0 50 c0 109 31 129 208 130 l122 0 0 -90z
m1638 -57 l3 -143 -51 0 -50 0 0 138 c0 76 3 142 7 146 4 4 25 6 48 4 l40 -3
3 -142z m612 2 l0 -145 -145 0 -145 0 0 138 c0 76 3 142 7 145 3 4 69 7 145 7
l138 0 0 -145z m2914 116 c33 -31 35 -87 5 -125 l-20 -26 -175 0 -174 0 0 83
c0 46 3 87 7 91 4 4 80 6 170 4 155 -3 162 -4 187 -27z m-1414 -76 c0 -60 -3
-75 -15 -75 -11 0 -15 12 -15 50 0 42 15 100 27 100 1 0 3 -34 3 -75z m-5778
-412 c3 -186 3 -189 34 -254 39 -82 116 -159 203 -202 62 -30 71 -32 178 -32
101 0 113 -2 113 -17 0 -17 -24 -18 -355 -18 l-355 0 0 355 0 355 89 0 89 0 4
-187z m498 32 c0 -152 -1 -156 -25 -180 -34 -35 -96 -35 -130 0 -24 24 -25 28
-25 180 l0 155 90 0 90 0 0 -155z m510 6 c0 -146 -1 -150 -26 -180 -37 -45
-101 -45 -138 0 -25 30 -26 34 -26 180 l0 149 95 0 95 0 0 -149z m370 10 c0
-169 10 -225 55 -318 42 -85 101 -142 195 -187 63 -30 69 -31 233 -34 136 -3
167 -6 167 -18 0 -12 -56 -14 -355 -14 l-355 0 0 123 c0 67 3 227 7 355 l6
232 24 0 23 0 0 -139z m1267 127 c-2 -7 -28 -101 -56 -208 -29 -107 -68 -251
-86 -319 -19 -68 -32 -128 -29 -133 3 -4 72 -8 155 -8 126 0 149 -2 149 -15 0
-13 -46 -15 -355 -15 -306 0 -355 2 -355 15 0 12 28 15 168 17 l167 3 0 155 0
155 -168 3 -168 2 3 93 3 92 165 5 165 5 3 83 3 82 120 0 c93 0 120 -3 116
-12z m386 -134 c111 -406 129 -472 138 -501 l11 -33 148 0 c83 0 151 4 155 9
3 6 -21 108 -54 228 -67 245 -111 416 -111 432 0 7 37 11 105 11 l105 0 0
-355 0 -355 -355 0 -355 0 0 79 c0 56 9 114 29 193 74 282 111 420 117 429 15
25 32 -8 67 -137z m639 -191 l3 -338 155 0 155 0 3 338 2 337 145 0 145 0 0
-355 0 -355 -355 0 -355 0 0 355 0 355 50 0 50 0 2 -337z m680 0 l3 -338 153
-3 152 -3 0 240 c0 132 3 246 6 255 5 14 31 16 185 16 l179 0 0 -270 0 -270
-355 0 -355 0 0 355 c0 307 2 355 15 355 13 0 15 -47 17 -337z m1078 190 c0
-215 26 -305 113 -400 47 -51 109 -90 182 -115 28 -9 51 -24 53 -32 3 -14 -34
-16 -352 -16 -310 0 -356 2 -356 15 0 13 23 15 150 15 l150 0 0 340 0 340 30
0 30 0 0 -147z m1085 135 c2 -7 6 -167 7 -356 l3 -342 -352 0 c-306 0 -353 2
-353 15 0 13 44 15 318 17 l317 3 3 149 c2 113 -1 151 -10 158 -7 4 -151 8
-320 8 l-308 0 0 95 0 95 318 2 317 3 3 83 c3 80 3 82 28 82 13 0 27 -6 29
-12z m1515 -343 l0 -355 -355 0 c-309 0 -355 2 -355 15 0 12 19 15 111 15
l110 0 -3 258 -3 257 -37 77 c-20 42 -34 79 -30 82 3 3 131 6 284 6 l278 0 0
-355z m750 0 l0 -355 -355 0 -355 0 0 355 0 355 355 0 355 0 0 -355z m-6750
90 l0 -95 -134 0 c-128 0 -136 1 -163 24 -24 21 -28 32 -31 95 l-4 71 166 0
166 0 0 -95z m3750 13 c0 -64 -3 -79 -12 -70 -7 7 -14 44 -16 82 -4 59 -2 70
12 70 13 0 16 -13 16 -82z m1409 56 l31 -26 0 -213 c0 -117 3 -220 6 -229 3
-9 17 -16 30 -16 15 0 24 -6 24 -15 0 -13 -46 -15 -355 -15 -309 0 -355 2
-355 15 0 13 21 15 130 15 l130 0 0 248 c0 137 3 252 7 255 3 4 77 7 164 7
155 0 158 0 188 -26z m-5903 -501 c-4 -10 -77 -13 -361 -13 l-356 0 3 31 c2
24 12 36 48 56 l46 26 41 -26 c174 -110 423 -55 545 121 l33 47 3 -114 c1 -63
0 -121 -2 -128z"/>
</g>
</svg>
